<svg xmlns="http://www.w3.org/2000/svg" xmlns:xlink="http://www.w3.org/1999/xlink" id="Layer_1" x="0" y="0" version="1.1" viewBox="0 0 1366 185.5" xml:space="preserve" style="enable-background:new 0 0 1366 185.5"><style type="text/css">.st0{fill:#7df2ea}</style><g><path d="M0,92.5V67.6L84,14v33L30,79.6v0.9L84,113v33L0,92.5z" class="st0"/><path d="M117.9,2h36.9v80.2h0.9L188.2,44h39.9l-73.3,81v26.2h-36.9V2z M163.8,105.8l21-22.7l45.9,68.2h-39.9 L163.8,105.8z" class="st0"/><path d="M246.5,2h36.9v80.2h0.9L316.9,44h39.9l-73.3,81v26.2h-36.9V2z M292.4,105.8l21-22.7l45.9,68.2h-39.9 L292.4,105.8z" class="st0"/><path d="M373.4,110V44h36.9v61.3c0,12,2.6,17.2,12.2,17.2c6.2,0,10.5-1.7,16.1-9.4V44h36.9v107.2h-30l-2.6-14.2H442 c-9,10.3-19.7,16.7-34.7,16.7C383.3,153.8,373.4,136.6,373.4,110z" class="st0"/><path d="M505.1,131.5l49.3-58.7h-43.3V44h94.3v19.7l-49.7,58.7h51v28.7H505.1V131.5z" class="st0"/><path d="M632.4,44h30l2.6,12.9h0.9c8.6-8.1,20.2-15.4,35.8-15.4c23.8,0,34.1,17.2,34.1,43.7v66h-36.9V89.9 c0-12-3-17.2-12.4-17.2c-6.9,0-11.6,3-17.2,8.1v70.3h-36.9V44z" class="st0"/><path d="M758,97.6c0-35.2,27.4-56.2,56.2-56.2c33.9,0,51,23.2,51,51.9c0,6.4-1.1,12.9-1.5,15.4h-77.8v-24h52.3 l-5.1,6.4c0-14.2-5.6-21.9-17.6-21.9c-14.2,0-21.9,9-21.9,28.3c0,20.2,9.9,28.3,29.6,28.3c8.6,0,16.3-2.1,25.7-6.4l12,21.9 c-12.9,8.1-29.6,12.4-42.9,12.4C784.2,153.8,758,133.2,758,97.6z" class="st0"/><path d="M910.7,105.8v-33h-25.7V45.3l27.4-1.3l4.7-32.2h30.4V44H990v28.7h-42.4v32.4c0,15.2,7.1,19.9,20.8,19.9 c7.3,0,13.7-1.5,19.5-3.4l6.4,26.6c-9.4,2.6-21,5.6-35.6,5.6C923.5,153.8,910.7,134.5,910.7,105.8z" class="st0"/><path d="M1014.4,137.5l15.4-22.7c13.5,7.9,28.3,12,42,12c9.4,0,13.3-2.6,13.3-6.4c0-5.1-5.6-6-23.6-9.9 c-29.6-6.4-40.3-17.6-40.3-34.3c0-21,19.9-34.7,51-34.7c20.2,0,36.2,7.9,47.6,15l-16.3,21.9c-11.1-6.4-23.6-9.9-34.7-9.9 c-6.9,0-11.1,2.1-11.1,6c0,4.7,5.6,5.1,22.3,9c32.2,7.3,41.6,16.9,41.6,34.7c0,20.2-19.1,35.6-54.9,35.6 C1048.3,153.8,1028.1,146.5,1014.4,137.5z" class="st0"/><path d="M1217.7-1h30.4l-70.7,186.5h-30.4L1217.7-1z" class="st0"/><path d="M1282,113l54-32.6v-0.9L1282,47V14l84,53.6v24.9l-84,53.6V113z" class="st0"/></g></svg>